ModelForces
version=1
nRows=4
nColumns=203
inDegrees=no

This file contains the forces exerted on a model during a simulation.

A force is a generalized force, meaning that it can be either a force (N) or a torque (Nm).

Units are S.I. units (second, meters, Newtons, ...)
Angles are in degrees.

endheader
time	glut_med1_r	glut_med2_r	glut_med3_r	glut_min1_r	glut_min2_r	glut_min3_r	semimem_r	semiten_r	bifemlh_r	bifemsh_r	sar_r	add_long_r	add_brev_r	add_mag1_r	add_mag2_r	add_mag3_r	tfl_r	pect_r	grac_r	glut_max1_r	glut_max2_r	glut_max3_r	iliacus_r	psoas_r	quad_fem_r	gem_r	peri_r	rect_fem_r	vas_med_r	vas_int_r	vas_lat_r	med_gas_r	lat_gas_r	soleus_r	tib_post_r	flex_dig_r	flex_hal_r	tib_ant_r	per_brev_r	per_long_r	per_tert_r	ext_dig_r	ext_hal_r	glut_med1_l	glut_med2_l	glut_med3_l	glut_min1_l	glut_min2_l	glut_min3_l	semimem_l	semiten_l	bifemlh_l	bifemsh_l	sar_l	add_long_l	add_brev_l	add_mag1_l	add_mag2_l	add_mag3_l	tfl_l	pect_l	grac_l	glut_max1_l	glut_max2_l	glut_max3_l	iliacus_l	psoas_l	quad_fem_l	gem_l	peri_l	rect_fem_l	vas_med_l	vas_int_l	vas_lat_l	med_gas_l	lat_gas_l	soleus_l	tib_post_l	flex_dig_l	flex_hal_l	tib_ant_l	per_brev_l	per_long_l	per_tert_l	ext_dig_l	ext_hal_l	ercspn_r	ercspn_l	intobl_r	intobl_l	extobl_r	extobl_l	femur_lat_meniscii_l.femur_lat_l.force.X	femur_lat_meniscii_l.femur_lat_l.force.Y	femur_lat_meniscii_l.femur_lat_l.force.Z	femur_lat_meniscii_l.femur_lat_l.torque.X	femur_lat_meniscii_l.femur_lat_l.torque.Y	femur_lat_meniscii_l.femur_lat_l.torque.Z	femur_lat_meniscii_l.meniscus_lat_l.force.X	femur_lat_meniscii_l.meniscus_lat_l.force.Y	femur_lat_meniscii_l.meniscus_lat_l.force.Z	femur_lat_meniscii_l.meniscus_lat_l.torque.X	femur_lat_meniscii_l.meniscus_lat_l.torque.Y	femur_lat_meniscii_l.meniscus_lat_l.torque.Z	femur_med_meniscii_l.femur_med_l.force.X	femur_med_meniscii_l.femur_med_l.force.Y	femur_med_meniscii_l.femur_med_l.force.Z	femur_med_meniscii_l.femur_med_l.torque.X	femur_med_meniscii_l.femur_med_l.torque.Y	femur_med_meniscii_l.femur_med_l.torque.Z	femur_med_meniscii_l.meniscus_med_l.force.X	femur_med_meniscii_l.meniscus_med_l.force.Y	femur_med_meniscii_l.meniscus_med_l.force.Z	femur_med_meniscii_l.meniscus_med_l.torque.X	femur_med_meniscii_l.meniscus_med_l.torque.Y	femur_med_meniscii_l.meniscus_med_l.torque.Z	femur_lat_meniscii_r.femur_lat_r.force.X	femur_lat_meniscii_r.femur_lat_r.force.Y	femur_lat_meniscii_r.femur_lat_r.force.Z	femur_lat_meniscii_r.femur_lat_r.torque.X	femur_lat_meniscii_r.femur_lat_r.torque.Y	femur_lat_meniscii_r.femur_lat_r.torque.Z	femur_lat_meniscii_r.meniscus_lat_r.force.X	femur_lat_meniscii_r.meniscus_lat_r.force.Y	femur_lat_meniscii_r.meniscus_lat_r.force.Z	femur_lat_meniscii_r.meniscus_lat_r.torque.X	femur_lat_meniscii_r.meniscus_lat_r.torque.Y	femur_lat_meniscii_r.meniscus_lat_r.torque.Z	femur_med_meniscii_r.femur_med_r.force.X	femur_med_meniscii_r.femur_med_r.force.Y	femur_med_meniscii_r.femur_med_r.force.Z	femur_med_meniscii_r.femur_med_r.torque.X	femur_med_meniscii_r.femur_med_r.torque.Y	femur_med_meniscii_r.femur_med_r.torque.Z	femur_med_meniscii_r.meniscus_med_r.force.X	femur_med_meniscii_r.meniscus_med_r.force.Y	femur_med_meniscii_r.meniscus_med_r.force.Z	femur_med_meniscii_r.meniscus_med_r.torque.X	femur_med_meniscii_r.meniscus_med_r.torque.Y	femur_med_meniscii_r.meniscus_med_r.torque.Z	femur_med_tibia_l.tibia_upper_l.force.X	femur_med_tibia_l.tibia_upper_l.force.Y	femur_med_tibia_l.tibia_upper_l.force.Z	femur_med_tibia_l.tibia_upper_l.torque.X	femur_med_tibia_l.tibia_upper_l.torque.Y	femur_med_tibia_l.tibia_upper_l.torque.Z	femur_med_tibia_l.femur_med_l.force.X	femur_med_tibia_l.femur_med_l.force.Y	femur_med_tibia_l.femur_med_l.force.Z	femur_med_tibia_l.femur_med_l.torque.X	femur_med_tibia_l.femur_med_l.torque.Y	femur_med_tibia_l.femur_med_l.torque.Z	femur_lat_tibia_l.tibia_upper_l.force.X	femur_lat_tibia_l.tibia_upper_l.force.Y	femur_lat_tibia_l.tibia_upper_l.force.Z	femur_lat_tibia_l.tibia_upper_l.torque.X	femur_lat_tibia_l.tibia_upper_l.torque.Y	femur_lat_tibia_l.tibia_upper_l.torque.Z	femur_lat_tibia_l.femur_lat_l.force.X	femur_lat_tibia_l.femur_lat_l.force.Y	femur_lat_tibia_l.femur_lat_l.force.Z	femur_lat_tibia_l.femur_lat_l.torque.X	femur_lat_tibia_l.femur_lat_l.torque.Y	femur_lat_tibia_l.femur_lat_l.torque.Z	femur_med_tibia_r.tibia_upper_r.force.X	femur_med_tibia_r.tibia_upper_r.force.Y	femur_med_tibia_r.tibia_upper_r.force.Z	femur_med_tibia_r.tibia_upper_r.torque.X	femur_med_tibia_r.tibia_upper_r.torque.Y	femur_med_tibia_r.tibia_upper_r.torque.Z	femur_med_tibia_r.femur_med_r.force.X	femur_med_tibia_r.femur_med_r.force.Y	femur_med_tibia_r.femur_med_r.force.Z	femur_med_tibia_r.femur_med_r.torque.X	femur_med_tibia_r.femur_med_r.torque.Y	femur_med_tibia_r.femur_med_r.torque.Z	femur_lat_tibia_r.tibia_upper_r.force.X	femur_lat_tibia_r.tibia_upper_r.force.Y	femur_lat_tibia_r.tibia_upper_r.force.Z	femur_lat_tibia_r.tibia_upper_r.torque.X	femur_lat_tibia_r.tibia_upper_r.torque.Y	femur_lat_tibia_r.tibia_upper_r.torque.Z	femur_lat_tibia_r.femur_lat_r.force.X	femur_lat_tibia_r.femur_lat_r.force.Y	femur_lat_tibia_r.femur_lat_r.force.Z	femur_lat_tibia_r.femur_lat_r.torque.X	femur_lat_tibia_r.femur_lat_r.torque.Y	femur_lat_tibia_r.femur_lat_r.torque.Z	aACL_R	pACL_R	aPCL_R	pPCL_R	aMCL_R	mMCL_R	pMCL_R	aLCL_R	mLCL_R	pLCL_R	aPCL_L	pPCL_L	aMCL_L	aLCL_L
      0.13026450	     13.74405692	      9.88689940	     10.65485088	      4.53406141	      5.22559261	      5.80603023	     72.55972684	    150.04635018	    140.86994479	    289.29910343	    126.99643040	      9.85866761	      7.02663694	      5.07880376	      4.32513865	      7.37616415	      6.45621874	      3.83162606	     94.92830281	      6.38919388	      9.72291058	      7.32470955	     30.39916289	     21.78188632	      6.25662286	      4.12757237	      8.40489356	     52.49421911	     36.39451470	     38.76859437	     52.05940621	      0.00000000	      0.00000000	      0.00000000	      0.00000000	      0.00000000	      0.00000000	     43.76944162	      1.95647204	      2.12000135	     27.47551594	     30.04066262	      7.70593202	     13.74405692	      9.88689940	     10.65485088	      4.53406141	      5.22559261	      5.80603023	     17.30604793	      7.40021619	     14.95418955	     12.45560455	      2.58507693	      9.85866761	      7.02663694	      5.07880376	      4.32513865	      7.37616415	      6.19865163	      3.83162606	      2.67615773	      6.38919388	      9.72291058	      7.32470955	     30.39916289	     21.78188632	      6.25662286	      4.12757237	      8.40489356	     20.62576386	     11.68413583	     13.53392949	     14.53683223	     29.97538695	     13.93676949	     63.98079077	     56.30709958	      6.83012358	      6.70082760	     16.05303396	      8.65523304	     21.77292640	      3.36577408	     10.56566291	      3.29814993	     42.69305130	     42.69305130	     16.06393101	     16.06393101	     33.19585885	     33.19585885	      2.76307435	     50.99597937	     -9.56042239	      5.21997485	     -0.02578839	      1.48581788	     -2.76307435	    -50.99597937	      9.56042239	     -1.74637766	      0.02558040	     -0.48301696	     -3.31599387	     20.97615968	     -3.40468921	      0.94473225	     -0.02138609	     -1.00501789	      3.31599387	    -20.97615968	      3.40468921	      0.28075727	      0.00368718	     -0.29758878	     55.12058961	    220.72488381	    -16.56406259	      1.94358872	      1.20472812	     20.32500099	    -55.12058961	   -220.72488381	     16.56406259	      4.89373387	     -0.99002691	      5.28871231	    209.09434628	    371.71002493	    -15.01024028	     14.22645237	     -4.47895127	     81.39873526	   -209.09434628	   -371.71002493	     15.01024028	     -7.69628586	      4.36370429	      6.71327463	      0.00000000	      0.00000000	      0.00000000	      0.00000000	      0.00000000	      0.00000000	      0.00000000	      0.00000000	      0.00000000	      0.00000000	      0.00000000	      0.00000000	      0.00000000	      0.00000000	      0.00000000	      0.00000000	      0.00000000	      0.00000000	      0.00000000	      0.00000000	      0.00000000	      0.00000000	      0.00000000	      0.00000000	   -208.98792926	   -474.46471443	     51.17749536	    -10.25070634	      5.32286769	      7.64535599	    208.98792926	    474.46471443	    -51.17749536	     30.97183351	     -4.73481713	     82.42303570	      0.00000000	      0.00000000	      0.00000000	      0.00000000	      0.00000000	      0.00000000	      0.00000000	      0.00000000	      0.00000000	      0.00000000	      0.00000000	      0.00000000	      0.00000000	      0.00000000	    380.52095028	    184.66351921	     36.09613925	     11.56320559	      0.00000000	      0.00000000	      0.00000000	      0.00000000	      0.00000000	      0.00000000	      0.00000001	      0.00000000
      0.13049835	     13.72469729	      9.87376755	     10.64053963	      4.52827380	      5.21923162	      5.79786744	     72.03215844	    150.08400483	    140.84752626	    289.24786598	    127.02138834	      9.84543123	      7.01774993	      5.07207802	      4.31928656	      7.36558746	      6.44937378	      3.82669941	     94.92851091	      6.38065811	      9.70989824	      7.31477504	     30.37477019	     21.75407633	      6.24846816	      4.12353228	      8.39218854	     52.69277015	     36.53729101	     38.77232588	     52.06365853	      0.00000000	      0.00000000	      0.00000000	      0.00000000	      0.00000000	      0.00000000	     43.80326249	      1.97529471	      2.14952521	     27.62927136	     30.11448530	      7.72248308	     13.72469729	      9.87376755	     10.64053963	      4.52827380	      5.21923162	      5.79786744	     17.28019979	      7.38985030	     14.93197381	     12.43934822	      2.58179233	      9.84543123	      7.01774993	      5.07207802	      4.31928656	      7.36558746	      6.19207829	      3.82669941	      2.67269905	      6.38065811	      9.70989824	      7.31477504	     30.37477019	     21.75407633	      6.24846816	      4.12353228	      8.39218854	     20.59522484	     11.66813445	     13.51514719	     14.51662775	     29.93011195	     13.91565724	     63.88376794	     56.26405972	      6.81960632	      6.69049515	     16.02953185	      8.64216888	     21.74505305	      3.36149273	     10.54969786	      3.29319696	     42.63843666	     42.63843666	     16.04186730	     16.04186730	     33.17568861	     33.17568861	      2.76307435	     50.99597937	     -9.56042239	      5.21997485	     -0.02578839	      1.48581788	     -2.76307435	    -50.99597937	      9.56042239	     -1.74637766	      0.02558040	     -0.48301696	     -3.31599387	     20.97615968	     -3.40468921	      0.94473225	     -0.02138609	     -1.00501789	      3.31599387	    -20.97615968	      3.40468921	      0.28075727	      0.00368718	     -0.29758878	     59.93457003	    222.20503991	    -13.56935024	      0.66894664	      1.33729641	     22.30319875	    -59.93457003	   -222.20503991	     13.56935024	      5.01341951	     -1.18956072	      5.21453650	    207.61093736	    369.47044968	    -15.73392407	     14.47210822	     -4.45563386	     80.80699572	   -207.61093736	   -369.47044968	     15.73392407	     -7.66554947	      4.35798447	      6.71328657	      0.00000000	      0.00000000	      0.00000000	      0.00000000	      0.00000000	      0.00000000	      0.00000000	      0.00000000	      0.00000000	      0.00000000	      0.00000000	      0.00000000	      0.00000000	      0.00000000	      0.00000000	      0.00000000	      0.00000000	      0.00000000	      0.00000000	      0.00000000	      0.00000000	      0.00000000	      0.00000000	      0.00000000	   -211.93575635	   -476.78064173	     52.06404888	    -10.31379358	      5.40579158	      7.68091433	    211.93575635	    476.78064173	    -52.06404888	     31.38460135	     -4.80384398	     83.60385222	      0.00000000	      0.00000000	      0.00000000	      0.00000000	      0.00000000	      0.00000000	      0.00000000	      0.00000000	      0.00000000	      0.00000000	      0.00000000	      0.00000000	      0.00000000	      0.00000000	    383.50524409	    186.32082928	     36.62813294	     12.09943988	      0.00000000	      0.00000000	      0.00000000	      0.00000000	      0.00000000	      0.00000000	      0.00000001	      0.00000000
      0.13081078	     13.69892876	      9.85628840	     10.62149082	      4.52056991	      5.21076483	      5.78700243	     71.32125991	    150.15152105	    140.83075618	    289.25726772	    127.07081993	      9.82781312	      7.00592030	      5.06312579	      4.31149734	      7.35150923	      6.44057089	      3.82014161	     94.94228969	      6.36929685	      9.69257855	      7.30155203	     30.34230465	     21.71706199	      6.23761370	      4.11815523	      8.37527365	     52.96171619	     36.56341050	     38.77707038	     52.07159610	      0.00000000	      0.00000000	      0.00000000	      0.00000000	      0.00000000	      0.00000000	     43.84725895	      2.00076052	      2.18941171	     25.62684251	     30.21404520	      7.74471583	     13.69892876	      9.85628840	     10.62149082	      4.52056991	      5.21076483	      5.78700243	     17.24578861	      7.37605293	     14.90240021	     12.41770999	      2.57742017	      9.82781312	      7.00592030	      5.06312579	      4.31149734	      7.35150923	      6.18332888	      3.82014161	      2.66809525	      6.36929685	      9.69257855	      7.30155203	     30.34230465	     21.71706199	      6.23761370	      4.11815523	      8.37527365	     20.55457206	     11.64683696	     13.49014826	     14.48973644	     29.86982871	     13.88754682	     63.75459678	     56.20677121	      6.80559857	      6.67673473	     15.99824760	      8.62477747	     21.70794945	      3.35579434	     10.52844739	      3.28660478	     42.56573924	     42.56573924	     16.01249979	     16.01249979	     33.14884360	     33.14884360	      2.76307435	     50.99597937	     -9.56042239	      5.21997485	     -0.02578839	      1.48581788	     -2.76307435	    -50.99597937	      9.56042239	     -1.74637766	      0.02558040	     -0.48301696	     -3.31599387	     20.97615968	     -3.40468921	      0.94473225	     -0.02138609	     -1.00501789	      3.31599387	    -20.97615968	      3.40468921	      0.28075727	      0.00368718	     -0.29758878	     60.24137367	    221.50439645	    -13.39487959	      0.61071185	      1.33903994	     22.42839054	    -60.24137367	   -221.50439645	     13.39487959	      5.00367070	     -1.19448964	      5.21177165	    202.24614879	    366.05764782	    -16.36830399	     14.67502228	     -4.37952805	     78.64282480	   -202.24614879	   -366.05764782	     16.36830399	     -7.62851940	      4.30556198	      6.76933670	      0.00000000	      0.00000000	      0.00000000	      0.00000000	      0.00000000	      0.00000000	      0.00000000	      0.00000000	      0.00000000	      0.00000000	      0.00000000	      0.00000000	      0.00000000	      0.00000000	      0.00000000	      0.00000000	      0.00000000	      0.00000000	      0.00000000	      0.00000000	      0.00000000	      0.00000000	      0.00000000	      0.00000000	   -216.81892936	   -479.31827309	     52.66078270	    -10.37191892	      5.51799137	      7.68717588	    216.81892936	    479.31827309	    -52.66078270	     31.68162558	     -4.91071164	     85.57820685	      0.00000000	      0.00000000	      0.00000000	      0.00000000	      0.00000000	      0.00000000	      0.00000000	      0.00000000	      0.00000000	      0.00000000	      0.00000000	      0.00000000	      0.00000000	      0.00000000	    387.26386135	    187.93643310	     37.06144925	     12.50452047	      0.00000000	      0.00000000	      0.00000000	      0.00000000	      0.00000000	      0.00000000	      0.00000001	      0.00000000
      0.13141200	     13.64964925	      9.82286115	     10.58506235	      4.50583598	      5.19457286	      5.76622428	     69.92809962	    150.32949299	    140.83623581	    289.42709625	    127.20180763	      9.79412065	      6.98329532	      5.04600569	      4.29660181	      7.32458548	      6.42423502	      3.80759987	     95.00169879	      6.34757036	      9.65945748	      7.27626524	     30.28022481	     21.64628243	      6.21685502	      4.10787381	      8.34291314	     53.48149142	     36.51816416	     38.75646573	     52.06237512	      0.00000000	      0.00000000	      0.00000000	      0.00000000	      0.00000000	      0.00000000	     43.92996579	      2.05035200	      2.26716088	     35.69336583	     30.40757598	      7.78793889	     13.64964925	      9.82286115	     10.58506235	      4.50583598	      5.19457286	      5.76622428	     17.17996130	      7.34966717	     14.84583278	     12.37632813	      2.56905820	      9.79412065	      6.98329532	      5.04600569	      4.29660181	      7.32458548	      6.16659657	      3.80759987	      2.65929057	      6.34757036	      9.65945748	      7.27626524	     30.28022481	     21.64628243	      6.21685502	      4.10787381	      8.34291314	     20.47681519	     11.60611115	     13.44234413	     14.43831527	     29.75447887	     13.83375961	     63.50747664	     56.09721136	      6.77878210	      6.65039559	     15.93841375	      8.59151041	     21.63698331	      3.34489773	     10.48780701	      3.27399931	     42.42670379	     42.42670379	     15.95633838	     15.95633838	     33.09751322	     33.09751322	      2.76307435	     50.99597937	     -9.56042239	      5.21997485	     -0.02578839	      1.48581788	     -2.76307435	    -50.99597937	      9.56042239	     -1.74637766	      0.02558040	     -0.48301696	     -3.31599387	     20.97615968	     -3.40468921	      0.94473225	     -0.02138609	     -1.00501789	      3.31599387	    -20.97615968	      3.40468921	      0.28075727	      0.00368718	     -0.29758878	     62.91864406	    219.05501179	    -13.37978678	      0.66307010	      1.39883223	     23.55726475	    -62.91864406	   -219.05501179	     13.37978678	      4.94247650	     -1.25825385	      5.10446170	    209.59005183	    362.17097910	    -17.36855578	     14.98294790	     -4.51518780	     81.64529502	   -209.59005183	   -362.17097910	     17.36855578	     -7.55452588	      4.44820500	      6.59831886	      0.00000000	      0.00000000	      0.00000000	      0.00000000	      0.00000000	      0.00000000	      0.00000000	      0.00000000	      0.00000000	      0.00000000	      0.00000000	      0.00000000	      0.00000000	      0.00000000	      0.00000000	      0.00000000	      0.00000000	      0.00000000	      0.00000000	      0.00000000	      0.00000000	      0.00000000	      0.00000000	      0.00000000	   -224.07783910	   -484.11300721	     53.53789996	    -10.47203177	      5.68448935	      7.75955261	    224.07783910	    484.11300721	    -53.53789996	     32.13675189	     -5.06798508	     88.49079362	      0.00000000	      0.00000000	      0.00000000	      0.00000000	      0.00000000	      0.00000000	      0.00000000	      0.00000000	      0.00000000	      0.00000000	      0.00000000	      0.00000000	      0.00000000	      0.00000000	    394.74781183	    191.76023209	     38.06169860	     13.49324270	      0.00000000	      0.00000000	      0.00000000	      0.00000000	      0.00000000	      0.00000000	      0.00000001	      0.00000000
